<svg width="162" height="20" viewBox="0 0 162 20" fill="none" xmlns="http://www.w3.org/2000/svg">
<path d="M15.5352 19H10.8828V12.0156H5.50391V19H0.851562V1.86719H5.50391V8.21875H10.8828V1.86719H15.5352V19Z" fill="black"/>
<path d="M27.6406 19L26.7617 17.2422H26.668C26.0508 18.0078 25.4219 18.5312 24.7812 18.8125C24.1406 19.0938 23.3125 19.2344 22.2969 19.2344C21.0469 19.2344 20.0625 18.8594 19.3438 18.1094C18.625 17.3594 18.2656 16.3047 18.2656 14.9453C18.2656 13.5312 18.7578 12.4805 19.7422 11.793C20.7266 11.0977 22.1523 10.707 24.0195 10.6211L26.2344 10.5508V10.3633C26.2344 9.26953 25.6953 8.72266 24.6172 8.72266C23.6484 8.72266 22.418 9.05078 20.9258 9.70703L19.6016 6.68359C21.1484 5.88672 23.1016 5.48828 25.4609 5.48828C27.1641 5.48828 28.4805 5.91016 29.4102 6.75391C30.3477 7.59766 30.8164 8.77734 30.8164 10.293V19H27.6406ZM24.2422 16C24.7969 16 25.2695 15.8242 25.6602 15.4727C26.0586 15.1211 26.2578 14.6641 26.2578 14.1016V13.0703L25.2031 13.1172C23.6953 13.1719 22.9414 13.7266 22.9414 14.7812C22.9414 15.5938 23.375 16 24.2422 16Z" fill="black"/>
<path d="M39.9805 19.2344C37.8086 19.2344 36.1602 18.6484 35.0352 17.4766C33.918 16.3047 33.3594 14.6211 33.3594 12.4258C33.3594 10.2227 33.9648 8.51562 35.1758 7.30469C36.3867 6.09375 38.1094 5.48828 40.3438 5.48828C41.8828 5.48828 43.332 5.82422 44.6914 6.49609L43.3438 9.88281C42.7891 9.64062 42.2773 9.44922 41.8086 9.30859C41.3398 9.16016 40.8516 9.08594 40.3438 9.08594C39.6016 9.08594 39.0273 9.375 38.6211 9.95312C38.2148 10.5312 38.0117 11.3477 38.0117 12.4023C38.0117 14.5273 38.7969 15.5898 40.3672 15.5898C41.7109 15.5898 43 15.1992 44.2344 14.418V18.0625C43.0547 18.8438 41.6367 19.2344 39.9805 19.2344Z" fill="black"/>
<path d="M51.3125 11.5352C51.8672 10.6523 52.3398 9.96484 52.7305 9.47266L55.707 5.72266H60.8164L56.2109 11.3711L61.1094 19H55.8711L52.9648 14.2422L51.4766 15.3789V19H46.8711V0.765625H51.4766V7.9375C51.4766 9.16406 51.3906 10.3633 51.2188 11.5352H51.3125Z" fill="black"/>
<path d="M69.1016 19.2344C66.8906 19.2344 65.1719 18.6484 63.9453 17.4766C62.7266 16.2969 62.1172 14.6211 62.1172 12.4492C62.1172 10.207 62.6836 8.48828 63.8164 7.29297C64.9492 6.08984 66.5664 5.48828 68.668 5.48828C70.668 5.48828 72.2109 6.01172 73.2969 7.05859C74.3906 8.09766 74.9375 9.59766 74.9375 11.5586V13.5977H66.7461C66.7773 14.3398 67.0469 14.9219 67.5547 15.3438C68.0703 15.7656 68.7695 15.9766 69.6523 15.9766C70.457 15.9766 71.1953 15.9023 71.8672 15.7539C72.5469 15.5977 73.2812 15.3359 74.0703 14.9688V18.2617C73.3516 18.6289 72.6094 18.8828 71.8438 19.0234C71.0781 19.1641 70.1641 19.2344 69.1016 19.2344ZM68.832 8.60547C68.293 8.60547 67.8398 8.77734 67.4727 9.12109C67.1133 9.45703 66.9023 9.98828 66.8398 10.7148H70.7773C70.7617 10.0742 70.5781 9.5625 70.2266 9.17969C69.8828 8.79688 69.418 8.60547 68.832 8.60547Z" fill="black"/>
<path d="M85.543 5.48828C85.9414 5.48828 86.3203 5.51953 86.6797 5.58203L86.9375 5.62891L86.5273 9.95312C86.1523 9.85938 85.6328 9.8125 84.9688 9.8125C83.9688 9.8125 83.2422 10.043 82.7891 10.5039C82.3359 10.957 82.1094 11.6133 82.1094 12.4727V19H77.5273V5.72266H80.9375L81.6523 7.84375H81.875C82.2578 7.14062 82.7891 6.57422 83.4688 6.14453C84.1562 5.70703 84.8477 5.48828 85.543 5.48828Z" fill="black"/>
<path d="M111.617 19H105.547L99.2891 6.92969H99.1836C99.332 8.82812 99.4062 10.2773 99.4062 11.2773V19H95.3047V1.86719H101.352L107.586 13.7734H107.656C107.547 12.0469 107.492 10.6602 107.492 9.61328V1.86719H111.617V19Z" fill="black"/>
<path d="M121.461 19.2344C119.25 19.2344 117.531 18.6484 116.305 17.4766C115.086 16.2969 114.477 14.6211 114.477 12.4492C114.477 10.207 115.043 8.48828 116.176 7.29297C117.309 6.08984 118.926 5.48828 121.027 5.48828C123.027 5.48828 124.57 6.01172 125.656 7.05859C126.75 8.09766 127.297 9.59766 127.297 11.5586V13.5977H119.105C119.137 14.3398 119.406 14.9219 119.914 15.3438C120.43 15.7656 121.129 15.9766 122.012 15.9766C122.816 15.9766 123.555 15.9023 124.227 15.7539C124.906 15.5977 125.641 15.3359 126.43 14.9688V18.2617C125.711 18.6289 124.969 18.8828 124.203 19.0234C123.438 19.1641 122.523 19.2344 121.461 19.2344ZM121.191 8.60547C120.652 8.60547 120.199 8.77734 119.832 9.12109C119.473 9.45703 119.262 9.98828 119.199 10.7148H123.137C123.121 10.0742 122.938 9.5625 122.586 9.17969C122.242 8.79688 121.777 8.60547 121.191 8.60547Z" fill="black"/>
<path d="M141.312 19L139.812 12.6719L139.461 10.7617L139.227 9.22656H139.156C138.773 11.4141 138.516 12.793 138.383 13.3633L137.035 19H132.219L128.598 5.72266H133.109L134.188 10.8203C134.531 12.5703 134.73 14.0234 134.785 15.1797H134.855C134.879 14.4609 135.094 13.0938 135.5 11.0781L136.73 5.72266H141.793L142.918 11.1484C143.277 12.875 143.504 14.2188 143.598 15.1797H143.668C143.715 14.5859 143.793 13.8477 143.902 12.9648C144.012 12.0742 144.133 11.3594 144.266 10.8203L145.438 5.72266H149.855L146.211 19H141.312Z" fill="black"/>
<path d="M161.984 14.9219C161.984 16.3438 161.5 17.418 160.531 18.1445C159.562 18.8711 158.172 19.2344 156.359 19.2344C155.375 19.2344 154.52 19.1797 153.793 19.0703C153.066 18.9688 152.324 18.7773 151.566 18.4961V14.8281C152.277 15.1406 153.055 15.3984 153.898 15.6016C154.75 15.8047 155.508 15.9062 156.172 15.9062C157.164 15.9062 157.66 15.6797 157.66 15.2266C157.66 14.9922 157.52 14.7852 157.238 14.6055C156.965 14.418 156.16 14.0586 154.824 13.5273C153.605 13.0273 152.754 12.4609 152.27 11.8281C151.785 11.1875 151.543 10.3789 151.543 9.40234C151.543 8.16797 152.02 7.20703 152.973 6.51953C153.926 5.83203 155.273 5.48828 157.016 5.48828C157.891 5.48828 158.711 5.58594 159.477 5.78125C160.25 5.96875 161.051 6.24609 161.879 6.61328L160.637 9.56641C160.027 9.29297 159.383 9.0625 158.703 8.875C158.023 8.67969 157.469 8.58203 157.039 8.58203C156.289 8.58203 155.914 8.76562 155.914 9.13281C155.914 9.35938 156.043 9.55469 156.301 9.71875C156.566 9.875 157.324 10.1992 158.574 10.6914C159.504 11.0742 160.195 11.4492 160.648 11.8164C161.109 12.1836 161.445 12.6172 161.656 13.1172C161.875 13.6094 161.984 14.2109 161.984 14.9219Z" fill="black"/>
</svg>
